<?xml version="1.0" encoding="UTF-8"?>
<svg width="1200pt" height="1200pt" version="1.1" viewBox="0 0 1200 1200" xmlns="http://www.w3.org/2000/svg">
 <path d="m363.78 365.18h-2.2305c-76.656 0-115.52 39.816-115.52 118.36v3.2539c0 78.527 38.867 118.36 115.52 118.36h2.2305c76.656 0 115.52-39.816 115.52-118.36v-3.2539c0-78.539-38.867-118.36-115.52-118.36zm73.113 121.61c0 54.648-20.496 75.938-73.117 75.938h-2.2305c-52.609 0-73.117-21.289-73.117-75.938v-3.2539c0-54.648 20.496-75.949 73.117-75.949h2.2305c52.609 0 73.117 21.289 73.117 75.949zm-30.406-2.5312v1.8125c0 38.566-17.797 54.457-52.848 54.457h-1.2461c-35.051 0-52.859-15.887-52.859-54.457v-1.8125c0-38.461 17.797-54.457 52.859-54.457h1.2461c35.051 0 52.848 15.996 52.848 54.457zm437.2-119.08c-76.668 0-115.54 39.816-115.54 118.36v3.2539c0 78.527 38.867 118.36 115.54 118.36h2.2305c76.668 0 115.52-39.816 115.52-118.36v-3.2539c0-78.527-38.855-118.36-115.52-118.36zm75.336 118.36v3.2539c0 54.648-20.508 75.938-73.117 75.938h-2.2305c-52.621 0-73.129-21.289-73.129-75.938v-3.2539c0-54.648 20.508-75.949 73.129-75.949h2.2305c52.609 0.003906 73.117 21.301 73.117 75.949zm-65.219-53.734h1.2461c35.039 0 52.848 15.996 52.848 54.457v1.8125c0 38.566-17.809 54.457-52.848 54.457l-1.2461-0.003906c-35.051 0-52.848-15.887-52.848-54.457v-1.8125c0-38.457 17.793-54.453 52.848-54.453zm-8.2461 591.67c-48.215 35.473-127.12 42.371-236.44 42.371h-6.9609c-108.78 0-187.43-6.8281-235.7-41.82 2.1133 0.13281 4.2852 0.35938 6.3359 0.35938 63.191 0 95.293-63.91 124.23-121.61 28.824-57.406 56.051-111.65 108.35-111.65 50.531 0 74.352 52.031 99.59 107.11 27.566 60.23 61.012 133.12 140.59 125.23zm355.15-700.73c-15.168-106.96-163.25-119.5-282.25-129.56-38.879-3.2891-75.574-6.4453-100.67-12.457-57.516-21.758-126.42-32.484-207.29-32.484h-9.7188c-73.141 0-136.52 8.7344-190.52 26.496-1.8125 0.046875-3.6484 0.25391-5.4727 0.79297-4.8711 1.4531-9.6133 2.9648-14.27 4.5469-25.117 6.457-63.203 9.6836-103.49 13.094-119 10.078-267.09 22.621-282.25 129.56-6.7812 47.797 3.6367 109.86 27.203 161.98 26.785 59.23 65.988 96.574 107.59 102.48 2.543 0.35938 4.9922 0.52734 7.3438 0.52734 9.1797 0 16.789-2.2695 23.305-6.2148-0.023438 3.2656-0.14453 6.457-0.14453 9.7578v14.113c0 186.77 52.344 311.81 161.63 380.12 0.046875 0.097656 0.10938 0.17969 0.16797 0.26562 1.0078 0.19141 2.0273 0.44531 3.0234 0.86328 68.914 29.027 96.672-17.902 136.29-96.816 30.012-59.809 64.043-127.6 134.18-127.6 69.098 0 99.254 65.855 125.87 123.97 37.441 81.781 64.465 130.39 145.14 100.23 1.0195-0.37109 2.0391-0.61328 3.0859-0.74219 0.023437-0.058594 0.058594-0.10938 0.097656-0.16797 109.3-68.328 161.64-193.37 161.64-380.14v-14.113c0-2.3281-0.085937-4.5469-0.10938-6.8516 5.1719 2.0742 10.883 3.3008 17.461 3.3125h0.011719c2.3633 0 4.8008-0.16797 7.3438-0.52734 41.605-5.8906 80.809-43.246 107.58-102.48 23.582-52.105 34.012-114.17 27.23-161.97zm-591.59 265.92h-6.9609c-18 0-35.172 0.60156-51.516 1.8008 5.3164-24.383 21.012-33.684 52.906-33.684h1.8125c31.824 0 47.52 9.2539 52.883 33.539-15.645-1.082-31.988-1.6562-49.125-1.6562zm389.68 16.715c0 142.12-31.609 243.73-98.555 309.1 1.1758-11.113 1.8242-22.934 1.8242-35.699v-56.027c0-136.57-67.43-207.19-200.35-227.65-6.2031-52.871-39.121-80.746-96.359-80.746h-1.8125c-57.359 0-90.312 27.996-96.395 81.109-131.33 20.941-197.94 91.523-197.94 227.28v56.027c0 12.758 0.66016 24.59 1.8242 35.699-66.949-65.363-98.543-166.98-98.543-309.1v-14.113c0-277.05 119.75-400.62 388.3-400.62h9.7188c66.996 0 124.73 7.7031 173.65 23.543 0.875 0.50391 1.7539 1.0078 2.7109 1.3906 4.6328 1.8242 9.6719 3.457 15.336 4.9805 134.66 51.613 196.6 171.47 196.6 370.7zm-187.8-274.19c-87.254 0-113.86-14.629-137.33-27.527-16.094-8.832-28.801-15.816-68.281-15.816-39.648 0-52.57 7.0312-68.965 15.938-23.617 12.84-50.387 27.406-136.66 27.406-11.711 0-21.203-9.5039-21.203-21.215 0-11.711 9.5039-21.203 21.203-21.203 75.492 0 96.277-11.305 116.4-22.246 19.066-10.367 38.785-21.098 89.219-21.098 50.363 0 69.852 10.715 88.691 21.07 19.945 10.957 40.559 22.273 116.93 22.273 11.711 0 21.215 9.5039 21.215 21.203-0.007812 11.711-9.5117 21.215-21.223 21.215z" fill="#d2d2d2"/>
</svg>
